<svg width="20" height="20" viewBox="0 0 20 20" fill="none" xmlns="http://www.w3.org/2000/svg">
<path d="M14.2187 10C14.2188 10.0616 14.2067 10.1226 14.1831 10.1795C14.1596 10.2363 14.125 10.288 14.0814 10.3315L7.8314 16.5815C7.78787 16.625 7.73619 16.6596 7.67932 16.6831C7.62244 16.7067 7.56148 16.7188 7.49992 16.7188C7.37559 16.7188 7.25635 16.6694 7.16843 16.5815C7.08052 16.4936 7.03113 16.3744 7.03113 16.25C7.03113 16.1257 7.08052 16.0065 7.16843 15.9185L13.087 10L7.16843 4.08151C7.08052 3.99359 7.03113 3.87435 7.03113 3.75002C7.03113 3.62569 7.08052 3.50645 7.16843 3.41854C7.25635 3.33062 7.37559 3.28123 7.49992 3.28123C7.62425 3.28123 7.74349 3.33062 7.8314 3.41854L14.0814 9.66854C14.125 9.71202 14.1596 9.76369 14.1831 9.82058C14.2067 9.87747 14.2188 9.93845 14.2187 10Z" fill="#9A9A9C"/>
</svg>
