<svg width="19" height="18" viewBox="0 0 19 18" fill="none" xmlns="http://www.w3.org/2000/svg">
<path fill-rule="evenodd" clip-rule="evenodd" d="M14.2761 0.857146C12.692 0.857146 11.4079 2.14126 11.4079 3.72529C11.4079 5.30932 12.692 6.59343 14.2761 6.59343C15.8601 6.59343 17.1442 5.30932 17.1442 3.72529C17.1442 2.14126 15.8601 0.857146 14.2761 0.857146ZM10.5508 3.72529C10.5508 1.66787 12.2186 0 14.2761 0C16.3335 0 18.0014 1.66787 18.0014 3.72529C18.0014 5.78271 16.3335 7.45058 14.2761 7.45058C12.2186 7.45058 10.5508 5.78271 10.5508 3.72529Z" fill="white"/>
<path fill-rule="evenodd" clip-rule="evenodd" d="M3.72529 11.4065C2.14126 11.4065 0.857146 12.6906 0.857146 14.2746C0.857146 15.8586 2.14126 17.1427 3.72529 17.1427C5.30932 17.1427 6.59343 15.8586 6.59343 14.2746C6.59343 12.6906 5.30932 11.4065 3.72529 11.4065ZM0 14.2746C0 12.2172 1.66787 10.5493 3.72529 10.5493C5.78271 10.5493 7.45058 12.2172 7.45058 14.2746C7.45058 16.332 5.78271 17.9999 3.72529 17.9999C1.66787 17.9999 0 16.332 0 14.2746Z" fill="white"/>
<path fill-rule="evenodd" clip-rule="evenodd" d="M10.5508 10.9779C10.5508 10.7412 10.7427 10.5493 10.9794 10.5493H17.5728C17.8095 10.5493 18.0014 10.7412 18.0014 10.9779V16.7142C18.0014 17.4243 17.4257 17.9999 16.7156 17.9999H11.8365C11.1264 17.9999 10.5508 17.4243 10.5508 16.7142V10.9779ZM11.4079 11.4065V16.7142C11.4079 16.9509 11.5998 17.1427 11.8365 17.1427H16.7156C16.9523 17.1427 17.1442 16.9509 17.1442 16.7142V11.4065H11.4079Z" fill="white"/>
<path fill-rule="evenodd" clip-rule="evenodd" d="M0 0.428573C0 0.191879 0.191879 0 0.428573 0H7.022C7.2587 0 7.45058 0.191879 7.45058 0.428573V6.16486C7.45058 6.87494 6.87494 7.45058 6.16486 7.45058H1.28572C0.575636 7.45058 0 6.87494 0 6.16486V0.428573ZM0.857146 0.857146V6.16486C0.857146 6.40155 1.04902 6.59343 1.28572 6.59343H6.16486C6.40155 6.59343 6.59343 6.40155 6.59343 6.16486V0.857146H0.857146Z" fill="white"/>
</svg>
