<svg width="30" height="26" viewBox="0 0 30 26" fill="none" xmlns="http://www.w3.org/2000/svg">
<g clip-path="url(#clip0_2319_19030)">
<path fill-rule="evenodd" clip-rule="evenodd" d="M14.838 3.28416C14.9392 3.14482 14.9987 2.97961 15.0095 2.80776C15.0095 1.94391 13.6947 1.30872 12.0813 1.30872C10.4679 1.30872 9.16577 1.94391 9.16577 2.80776C9.17246 2.94142 9.20632 3.07232 9.26529 3.19245C9.32427 3.31259 9.40712 3.41943 9.50877 3.50647C9.40852 3.5906 9.32642 3.69423 9.26746 3.81106C9.20849 3.9279 9.1739 4.0555 9.16577 4.18612C9.16577 5.03093 10.5759 5.71693 12.3417 5.71693C14.1075 5.71693 15.4859 5.03093 15.4859 4.18612C15.4629 3.9933 15.3914 3.80945 15.2781 3.65172C15.1648 3.494 15.0134 3.36754 14.838 3.28416Z" fill="#FCF065"/>
<path fill-rule="evenodd" clip-rule="evenodd" d="M17.4741 0.171659L17.328 0.317753V3.07448H15.6003L15.3462 2.53456C15.1212 2.06188 14.7934 1.64546 14.3868 1.31576C13.9802 0.986061 13.505 0.751419 12.996 0.628995C12.3627 0.507803 11.7097 0.538276 11.0904 0.717922C10.5906 0.893603 10.135 1.17612 9.75545 1.5458C9.37589 1.91548 9.08147 2.36345 8.89268 2.85851L8.79105 3.15705L8.15586 3.28409C6.40662 3.63739 4.78125 4.44507 3.44322 5.62588C2.10519 6.8067 1.10167 8.31902 0.533587 10.0107C0.110435 11.2343 -0.0644772 12.5299 0.0190831 13.8219C0.0540226 14.9064 0.181524 15.9859 0.400197 17.0486C0.951675 19.3804 1.86013 21.613 3.0934 23.6673C3.7667 24.7789 3.97631 25.052 4.36378 25.2489L4.67502 25.4204H6.07879C7.66676 25.4204 7.69852 25.4204 8.1241 25.0203C8.28792 24.8689 8.41488 24.6819 8.49526 24.4738C8.57563 24.2657 8.60729 24.042 8.58779 23.8198C8.58779 23.3434 8.6259 23.2799 8.70848 23.3243C8.79105 23.3688 10.1377 23.3751 11.7701 23.3878H14.7364V23.8706C14.7288 24.0812 14.7662 24.291 14.8461 24.486C14.9261 24.681 15.0468 24.8566 15.2001 25.0012C15.6193 25.3887 15.6702 25.4014 17.2137 25.4204C18.7572 25.4395 18.9668 25.4204 19.3479 25.1346C19.7606 24.8043 20.0274 24.3255 20.0911 23.8007C20.1736 23.4387 20.2435 23.1655 20.2499 23.1655L20.8978 22.9051C22.179 22.4937 23.3661 21.833 24.3908 20.9609C25.4156 20.0888 26.2576 19.0225 26.8685 17.8236L27.1099 17.3408H28.1326C28.5275 17.3552 28.9229 17.3339 29.314 17.2773C29.5816 17.1559 29.796 16.9415 29.9175 16.6739C29.9492 16.5723 29.981 15.5369 29.9937 14.3237C29.9937 11.9798 29.9937 11.8718 29.7015 11.586C29.4093 11.3002 29.1679 11.2494 28.4311 11.2494H27.7578L27.6943 11.0016C27.3624 9.54927 26.7153 8.18762 25.7987 7.01312C24.8822 5.83862 23.7186 4.87999 22.3905 4.20511L21.6219 3.84941L21.5139 3.46194C21.2923 2.68823 20.8829 1.98128 20.3222 1.40393C19.7614 0.826586 19.0667 0.396737 18.2998 0.152603C17.7853 -0.00619409 17.6456 0.000157792 17.4741 0.171659ZM18.2617 3.21422C18.3018 3.93281 18.2763 4.65355 18.1855 5.36751C18.1258 5.44403 18.0463 5.5028 17.9556 5.5375C17.865 5.5722 17.7666 5.5815 17.671 5.56442C17.3788 5.5009 17.3216 5.34845 17.3216 4.67515V4.03996H16.534C16.2706 4.02494 16.0064 4.03986 15.7464 4.08443C15.7121 4.39185 15.6612 4.69718 15.5939 4.9991C15.5622 5.07532 15.5939 5.09438 15.74 5.09438C15.8358 5.09437 15.9293 5.12321 16.0084 5.17716C16.0876 5.2311 16.1486 5.30764 16.1836 5.39679C16.2185 5.48593 16.2258 5.58355 16.2045 5.67691C16.1832 5.77026 16.1342 5.85502 16.064 5.92012L15.9115 6.05986H8.41629L8.2702 5.89472C8.19937 5.82848 8.1537 5.73974 8.14096 5.64361C8.12822 5.54748 8.1492 5.44991 8.20032 5.36751C8.23917 5.29043 8.29932 5.22611 8.37363 5.1822C8.44794 5.13829 8.53329 5.11663 8.61955 5.11978C8.76564 5.11978 8.7847 5.11978 8.75294 4.9864C8.72118 4.85301 8.70212 4.70691 8.67672 4.51636C8.65131 4.3258 8.6132 4.1797 8.57509 4.18606C8.05702 4.28122 7.54729 4.41715 7.05063 4.59258C5.77165 5.03928 4.61607 5.78137 3.67777 6.75857C2.78935 7.61121 2.08997 8.64097 1.62492 9.78115C1.15988 10.9213 0.939553 12.1465 0.978219 13.3772C1.02487 16.283 1.75838 19.1365 3.11881 21.7046C3.55722 22.6706 4.11873 23.5758 4.78936 24.3978C5.22333 24.4513 5.66086 24.4704 6.09785 24.455C7.19037 24.455 7.31106 24.455 7.4381 24.3406L7.57149 24.2326L7.60325 21.4378L7.63501 18.6493L7.80015 18.5032C7.83827 18.461 7.88482 18.4273 7.93679 18.4042C7.98876 18.3811 8.045 18.3692 8.10187 18.3692C8.15874 18.3692 8.21498 18.3811 8.26695 18.4042C8.31892 18.4273 8.36547 18.461 8.40359 18.5032L8.56873 18.6493L8.60049 20.485V22.3207L8.86727 22.3652C9.01337 22.3652 10.3917 22.4287 11.9289 22.4478H14.7237V22.0857C14.7237 21.7617 14.7237 21.7109 14.9016 21.5458C15.0794 21.3806 15.1112 21.3743 15.27 21.406C15.3822 21.4355 15.4864 21.4897 15.5749 21.5648C15.6829 21.6728 15.6956 21.7808 15.721 22.9432C15.7464 24.1056 15.7527 24.2136 15.8861 24.3216C16.0195 24.4295 16.1338 24.4295 17.3534 24.4295C18.573 24.4295 18.6937 24.4295 18.808 24.3152C18.8764 24.2535 18.9306 24.1776 18.9668 24.0929L19.5575 21.3679C19.8688 19.9197 20.1482 18.6811 20.1927 18.6049C20.2248 18.5403 20.2715 18.4842 20.3291 18.4408C20.3867 18.3975 20.4536 18.3682 20.5245 18.3553C20.5954 18.3423 20.6684 18.3461 20.7376 18.3663C20.8068 18.3864 20.8703 18.4225 20.9232 18.4715C21.1391 18.6557 21.1264 18.7891 20.7453 20.5358C20.5738 21.3425 20.4341 22.0095 20.4468 22.0158C21.0215 21.8365 21.5786 21.6047 22.111 21.3235C22.912 20.9118 23.6413 20.3735 24.2706 19.7291C24.9579 19.0573 25.5289 18.2759 25.9602 17.4171C26.491 16.3923 26.8208 15.2755 26.9321 14.1268C26.9892 13.5678 27.0845 13.3518 27.2878 13.282C27.3675 13.2609 27.4512 13.2595 27.5315 13.2779C27.6119 13.2964 27.6866 13.3342 27.7491 13.3879C27.8117 13.4417 27.8602 13.5099 27.8904 13.5866C27.9207 13.6633 27.9319 13.7462 27.923 13.8282C27.879 14.4906 27.7748 15.1475 27.6117 15.791L27.472 16.2991H29.0345V12.2149H28.3485C27.2115 12.2149 26.9765 12.037 26.7288 11.0334C26.421 9.81356 25.868 8.66917 25.1036 7.66996C24.3392 6.67076 23.3793 5.83765 22.2825 5.22142L21.876 4.9991V5.37386C21.876 5.95188 21.6092 6.20596 21.1836 6.00905C20.9613 5.92012 20.8978 5.71686 20.8597 4.96099C20.8166 4.2487 20.6286 3.55271 20.307 2.91568C19.9267 2.26125 19.3814 1.71808 18.7254 1.34041L18.2998 1.11809L18.2617 3.21422ZM11.6431 1.57543C11.1577 1.67556 10.7144 1.92155 10.3727 2.28049C10.0812 2.56086 9.86286 2.90833 9.73664 3.29253C9.61042 3.67674 9.58018 4.08601 9.64856 4.4846C9.68667 4.69421 9.74383 4.93558 9.76924 5.0118L9.82641 5.1579H12.183H14.5459L14.6221 4.92923C14.7458 4.5173 14.7697 4.08186 14.692 3.65885C14.5941 3.17437 14.3597 2.72798 14.0164 2.37234C13.6732 2.0167 13.2353 1.76664 12.7546 1.65165C12.3975 1.52797 12.0138 1.50166 11.6431 1.57543ZM11.967 9.00079C11.8978 9.03427 11.8379 9.08421 11.7925 9.14622C11.7471 9.20823 11.7176 9.28043 11.7066 9.3565C11.7066 9.42002 11.6431 9.47083 11.5414 9.48989C10.8662 9.56925 10.2285 9.84286 9.70572 10.2775C9.53369 10.4136 9.39544 10.5876 9.30179 10.7859C9.20813 10.9843 9.16159 11.2016 9.16581 11.4209C9.16581 12.3482 9.83911 13.0152 11.2238 13.4725L11.7066 13.6313V16.0387L11.4843 16.0069C10.8491 15.9117 10.1249 15.4543 10.1249 15.1177C10.1091 14.9874 10.0458 14.8675 9.9471 14.781C9.79465 14.6286 9.73748 14.6095 9.57868 14.6413C9.51545 14.6465 9.454 14.6649 9.39824 14.6951C9.34247 14.7254 9.29362 14.767 9.25479 14.8172C9.21596 14.8673 9.18799 14.9251 9.17268 14.9866C9.15736 15.0482 9.15502 15.1123 9.16581 15.1748C9.16581 15.9879 10.1059 16.7438 11.3128 16.9661C11.6303 17.0232 11.7066 17.055 11.7066 17.1439C11.7313 17.2501 11.7888 17.3458 11.8708 17.4176C11.9529 17.4894 12.0554 17.5336 12.1639 17.5441C12.3799 17.5441 12.6403 17.3408 12.6403 17.1693C12.6403 16.9978 12.6975 17.0296 13.1167 16.947C14.6475 16.6294 15.4542 15.6766 15.1302 14.5841C15.0553 14.3088 14.8952 14.0643 14.6729 13.8854C14.2336 13.4651 13.6931 13.1654 13.104 13.0152L12.6657 12.8754V11.6559V10.4427L12.888 10.4871C13.6248 10.6205 14.1076 10.9318 14.2473 11.351C14.3871 11.7702 14.5141 11.8591 14.7301 11.8591C14.8266 11.8701 14.9239 11.8477 15.006 11.7958C15.088 11.7438 15.1498 11.6653 15.1811 11.5733C15.233 11.3281 15.2112 11.0731 15.1185 10.8403C15.0259 10.6075 14.8664 10.4072 14.6602 10.2648C14.132 9.82396 13.4837 9.55179 12.7991 9.48354C12.7642 9.48198 12.7312 9.46743 12.7065 9.44275C12.6818 9.41806 12.6673 9.38502 12.6657 9.35015C12.6532 9.27498 12.6231 9.20384 12.5779 9.14253C12.5326 9.08123 12.4735 9.03151 12.4054 8.99743C12.3372 8.96336 12.262 8.9459 12.1858 8.94648C12.1096 8.94707 12.0346 8.96568 11.967 9.00079ZM22.3333 10.3029C22.0518 10.3854 21.7904 10.5249 21.5652 10.7129C21.3401 10.9009 21.1561 11.1332 21.0248 11.3955C20.8597 11.7448 20.8724 11.8401 21.0693 12.0306C21.3742 12.3292 21.66 12.2212 21.9839 11.6686C22.0807 11.5223 22.2131 11.403 22.3687 11.3219C22.5242 11.2408 22.6978 11.2005 22.8732 11.2049C23.0965 11.1882 23.3195 11.24 23.5125 11.3535C23.7055 11.4671 23.8592 11.6368 23.953 11.8401C24.0103 11.9566 24.0981 12.0554 24.2071 12.1259C24.2798 12.154 24.3581 12.1646 24.4356 12.1568C24.5132 12.149 24.5878 12.123 24.6534 12.0809C24.719 12.0388 24.7737 11.9818 24.8132 11.9146C24.8526 11.8474 24.8757 11.7718 24.8804 11.694C24.8135 11.4031 24.6792 11.132 24.4883 10.9025C24.2975 10.673 24.0554 10.4916 23.7815 10.3728C23.3179 10.1992 22.8115 10.1747 22.3333 10.3029ZM11.2492 10.5443C9.71843 10.9572 9.75019 11.91 11.3064 12.4499L11.7066 12.596V11.5352C11.7066 10.7095 11.7066 10.4554 11.6303 10.4617C11.5017 10.4812 11.3744 10.5088 11.2492 10.5443ZM0.0127312 13.3772C0.0127312 13.9426 0.0127312 14.1712 0.0127312 13.8918C0.0127312 13.6123 0.0127312 13.1486 0.0127312 12.8691C0.0127312 12.5896 0.0127312 12.8183 0.0127312 13.3772ZM12.6403 14.9652V16.0387L12.9198 16.0006C13.343 15.9165 13.7397 15.7313 14.0758 15.4607C14.166 15.348 14.2152 15.208 14.2152 15.0637C14.2152 14.9194 14.166 14.7793 14.0758 14.6667C13.9072 14.4649 13.688 14.3115 13.4406 14.222C13.2337 14.1164 13.0217 14.0211 12.8054 13.9362L12.6403 13.8981V14.9652ZM14.9206 18.535C14.7555 18.7001 14.7491 18.7192 14.7491 19.3226C14.7491 19.9261 14.8063 20.1928 15.0223 20.2881C15.1046 20.341 15.2032 20.3624 15.3001 20.3484C15.3969 20.3344 15.4855 20.2859 15.5495 20.2119C15.7146 20.0721 15.7146 20.0658 15.7146 19.3607C15.7146 18.6557 15.7146 18.643 15.5495 18.5032C15.509 18.4585 15.4592 18.4234 15.4035 18.4004C15.3478 18.3773 15.2877 18.3669 15.2275 18.37C15.1673 18.373 15.1086 18.3894 15.0555 18.4179C15.0024 18.4465 14.9564 18.4865 14.9206 18.535Z" fill="#E51A83"/>
</g>
<defs>
<clipPath id="clip0_2319_19030">
<rect width="30" height="25.4076" fill="white" transform="translate(0 0.0383301)"/>
</clipPath>
</defs>
</svg>
