<svg width="17" height="18" viewBox="0 0 17 18" fill="none" xmlns="http://www.w3.org/2000/svg">
<path fill-rule="evenodd" clip-rule="evenodd" d="M0 15C0 12.5147 2.01472 10.5 4.5 10.5H12.5C14.9853 10.5 17 12.5147 17 15C17 16.3807 15.8807 17.5 14.5 17.5H2.5C1.11929 17.5 0 16.3807 0 15ZM4.5 11.5C2.567 11.5 1 13.067 1 15C1 15.8284 1.67157 16.5 2.5 16.5H14.5C15.3284 16.5 16 15.8284 16 15C16 13.067 14.433 11.5 12.5 11.5H4.5Z" fill="black"/>
<path fill-rule="evenodd" clip-rule="evenodd" d="M8.5 1.5C7.11929 1.5 6 2.61929 6 4C6 5.38071 7.11929 6.5 8.5 6.5C9.88071 6.5 11 5.38071 11 4C11 2.61929 9.88071 1.5 8.5 1.5ZM5 4C5 2.067 6.567 0.5 8.5 0.5C10.433 0.5 12 2.067 12 4C12 5.933 10.433 7.5 8.5 7.5C6.567 7.5 5 5.933 5 4Z" fill="black"/>
</svg>
