<svg width="30" height="27" viewBox="0 0 30 27" fill="none" xmlns="http://www.w3.org/2000/svg">
<g clip-path="url(#clip0_2319_19025)">
<path d="M4.76721 8.85463V13.9202L7.6301 15.2723V10.0099L19.8688 4.44286L17.0567 2.78607L4.76721 8.85463Z" fill="#FCF065"/>
<path fill-rule="evenodd" clip-rule="evenodd" d="M6.51291 3.45898C2.19636 5.39508 0.222174 6.30282 0.165043 6.41074L0.0317383 6.55674V13.3426C0.0317383 18.5923 0.0317383 20.1602 0.107913 20.23C0.166339 20.2998 0.237408 20.358 0.317392 20.4014C0.79983 20.6871 12.8608 26.0383 12.9623 26.0383C13.0639 26.0383 14.1621 25.5559 15.5015 24.9655L17.901 23.8927L18.2501 24.1974C18.9207 24.8074 19.7057 25.2781 20.5596 25.5824C21.4135 25.8866 22.3193 26.0184 23.2245 25.97C24.1297 25.9215 25.0162 25.6939 25.8328 25.3003C26.6494 24.9067 27.3797 24.3549 27.9814 23.6769C28.9771 22.6224 29.6395 21.2975 29.8857 19.8682L29.9302 19.5381L29.9619 19.8619C29.9619 20.0396 29.9619 17.1005 29.9619 13.3363V6.46152L29.9302 12.3142C29.9302 15.539 29.9302 18.0845 29.8857 17.9892C29.7841 17.3561 29.6051 16.7378 29.3525 16.1484C28.6963 14.6752 27.5894 13.4482 26.1913 12.6443L25.9437 12.5237V9.50849C25.9437 6.58848 25.9437 6.49326 25.8104 6.379C25.6771 6.26474 13.1147 0.665922 12.956 0.665922C12.8608 0.646878 9.97249 1.91645 6.51291 3.45898ZM7.27465 4.13185C4.22768 5.49664 1.70757 6.63926 1.68853 6.6583C1.66949 6.67735 4.79898 8.13101 4.93864 8.13101C5.10474 8.08726 5.26629 8.02774 5.42107 7.95327L11.0008 5.45856C13.851 4.18899 16.2061 3.13524 16.2315 3.1162C16.2569 3.09715 13.0576 1.63714 12.9369 1.64349C12.8163 1.64984 10.3216 2.76072 7.28735 4.13185H7.27465ZM11.7182 6.11239C8.67753 7.47718 6.15743 8.61345 6.11934 8.65153C6.08125 8.68962 6.35421 8.84197 6.91282 9.08954L7.78248 9.47676L13.4384 6.93761C16.5425 5.55378 19.088 4.39846 19.0944 4.39846C18.5408 4.10457 17.9682 3.84797 17.3804 3.63037C17.336 3.63672 14.8032 4.75394 11.7626 6.11239H11.7182ZM18.066 5.87117L12.4291 8.41031L8.90605 9.98458L10.9564 10.8542C12.7529 11.6541 12.975 11.7366 13.1147 11.6795C14.6318 11.0447 24.2679 6.69004 24.2361 6.6583C24.2044 6.62656 20.3639 4.91264 20.2941 4.91899C20.2243 4.92534 19.2721 5.35064 18.1168 5.87117H18.066ZM0.0317383 13.3426C0.0317383 17.1132 0.0317383 18.6431 0.0317383 16.7514C0.0317383 14.8597 0.0317383 11.7747 0.0317383 9.90206C0.0317383 8.02944 0.0317383 9.60371 0.0317383 13.3426ZM24.8836 7.39466C24.8392 7.4264 22.2429 8.58805 19.1071 9.98458L13.394 12.5237V24.8703L13.5844 24.7941L19.3864 22.2296L24.9915 19.6905V13.1141L24.6805 13.0189C23.7995 12.7599 22.8726 12.6968 21.9646 12.8338C21.0567 12.9709 20.1897 13.3049 19.4245 13.8123C18.787 14.2659 18.2328 14.8264 17.7867 15.4691C17.6585 15.6372 17.5479 15.818 17.4566 16.0087C17.7013 15.9356 17.9409 15.8466 18.1739 15.7421C18.4334 15.6261 18.7006 15.5285 18.9738 15.4501C19.068 15.4696 19.1555 15.5133 19.2277 15.5771C19.2715 15.6175 19.3065 15.6665 19.3305 15.7212C19.3544 15.7758 19.3668 15.8348 19.3668 15.8944C19.3668 15.9541 19.3544 16.0131 19.3305 16.0677C19.3065 16.1223 19.2715 16.1714 19.2277 16.2118C18.3805 16.6351 17.5044 16.9978 16.606 17.2973C16.4092 17.2973 16.3077 17.2275 16.1997 17.0117C15.9966 16.6118 15.1968 14.6058 15.1968 14.4725C15.2095 14.3637 15.2594 14.2626 15.3381 14.1862C15.4167 14.1099 15.5193 14.063 15.6284 14.0536C15.9331 14.0536 16.041 14.1805 16.3077 14.8661C16.3859 15.0859 16.4837 15.2984 16.5997 15.5009C16.667 15.4273 16.7226 15.3438 16.7647 15.2533C17.2617 14.4376 17.9078 13.7227 18.6691 13.1458C19.3822 12.6641 20.1691 12.3017 20.9987 12.073C22.2619 11.7268 23.595 11.7268 24.8582 12.073H24.9915V9.74971C24.9915 8.44205 24.9915 7.36927 24.9915 7.37561L24.8836 7.39466ZM0.952178 13.5521V19.7032L2.28523 20.3253L11.8388 24.5974L12.4735 24.8767V12.5428L10.4105 11.6223C9.27423 11.1209 8.32839 10.7082 8.303 10.7082C8.27761 10.7082 8.25857 11.8064 8.25857 13.1585V15.6024L8.12526 15.7294C8.04187 15.8024 7.93734 15.8469 7.82691 15.8564C6.71188 15.4431 5.62236 14.9641 4.56411 14.4217C4.48794 14.3456 4.47524 13.933 4.44985 11.6414V8.94988L2.70419 8.18814C1.77105 7.77553 0.983918 7.43274 0.958526 7.43274C0.933135 7.43274 0.945831 10.1687 0.952178 13.5775V13.5521ZM5.39568 11.6033V13.8123L6.28438 14.2059L7.281 14.6376C7.37622 14.6693 7.38256 14.5233 7.38256 12.4793C7.43852 11.7297 7.41298 10.9762 7.30639 10.2322C7.18578 10.156 5.49725 9.39423 5.44012 9.39423C5.38299 9.39423 5.38299 10.4162 5.38299 11.6287L5.39568 11.6033ZM25.9374 16.7768C25.9821 17.905 25.9588 19.0348 25.8675 20.1602C25.7787 20.3379 25.8168 20.3189 23.011 21.5694L19.8371 22.9787C19.5023 23.1143 19.1796 23.2778 18.8722 23.4674C18.9479 23.5786 19.045 23.6736 19.1578 23.7467C19.9238 24.3209 20.8089 24.7157 21.7478 24.9021C22.6431 25.0325 23.5545 25.0024 24.4393 24.8132C25.4904 24.5348 26.4489 23.9828 27.2172 23.2134C27.9855 22.444 28.5361 21.4847 28.813 20.4332C28.9358 19.9331 28.9786 19.4168 28.9399 18.9033C28.9789 18.3878 28.936 17.8693 28.813 17.3671C28.397 15.7997 27.3919 14.4534 26.0072 13.6092C25.9437 13.5775 25.9247 14.2313 25.9247 16.8022L25.9374 16.7768Z" fill="#E51A83"/>
</g>
<defs>
<clipPath id="clip0_2319_19025">
<rect width="30" height="25.3915" fill="white" transform="translate(0 0.646851)"/>
</clipPath>
</defs>
</svg>
