<svg width="30" height="21" viewBox="0 0 30 21" fill="none" xmlns="http://www.w3.org/2000/svg">
<path d="M11.2459 13.792C14.9996 13.792 18.0425 10.7491 18.0425 6.99539C18.0425 3.24173 14.9996 0.198792 11.2459 0.198792C7.49228 0.198792 4.44934 3.24173 4.44934 6.99539C4.44934 10.7491 7.49228 13.792 11.2459 13.792Z" fill="#FCF065"/>
<path fill-rule="evenodd" clip-rule="evenodd" d="M10.5391 0.0079738L10.023 0.100866C8.53688 0.368684 7.17526 1.10464 6.13706 2.20126C4.8691 3.52803 4.17447 5.30066 4.20344 7.13565C4.23242 8.97064 4.98267 10.7205 6.29188 12.0065C7.32108 13.0394 8.64388 13.7297 10.0798 13.9831C10.8598 14.0759 11.648 14.0759 12.4279 13.9831C13.8415 13.7279 15.1446 13.0504 16.1654 12.0397C17.1862 11.0291 17.8767 9.7328 18.1459 8.32181C18.2726 7.49647 18.283 6.65745 18.1769 5.82921C17.9805 4.78244 17.5655 3.78887 16.959 2.91343C16.2629 1.98488 15.3669 1.22471 14.3374 0.689182C13.8046 0.438438 13.2455 0.248032 12.6705 0.121509C11.9649 0.0198738 11.2515 -0.0181247 10.5391 0.0079738ZM10.5391 0.916253C9.51536 1.04362 8.53965 1.42472 7.70059 2.02495C6.86153 2.62517 6.18572 3.42551 5.73453 4.35326C5.38365 5.05815 5.17564 5.82549 5.1225 6.61109C5.06936 7.39669 5.17213 8.18505 5.42489 8.93077C5.69905 9.74608 6.1391 10.4958 6.71731 11.1326C7.29552 11.7694 7.99936 12.2796 8.78449 12.631C9.55548 12.9941 10.406 13.1557 11.2564 13.1006C11.7713 13.1414 12.2893 13.096 12.7892 12.9664C13.4769 12.7629 14.132 12.4622 14.7347 12.0736C15.3352 11.6306 15.8657 11.1 16.3087 10.4996C16.6921 9.90642 16.9892 9.26178 17.1912 8.58501C17.3638 7.75193 17.4056 6.89706 17.3151 6.05112C17.086 4.68775 16.3999 3.4429 15.3695 2.52122C14.5563 1.76844 13.5568 1.24644 12.4744 1.00915C11.8325 0.895276 11.1786 0.864058 10.5288 0.916253H10.5391ZM11.0139 1.94839C10.8831 2.10136 10.8025 2.29088 10.7831 2.49123C10.7637 2.69158 10.8065 2.89303 10.9055 3.06825C10.9762 3.14979 11.0731 3.20418 11.1795 3.22207C11.2859 3.23997 11.3952 3.22025 11.4887 3.1663C11.5846 3.0623 11.6539 2.93665 11.6907 2.80006C11.7276 2.66347 11.7309 2.52001 11.7003 2.38188C11.628 1.95871 11.2668 1.73164 11.0036 1.9329L11.0139 1.94839ZM14.3012 3.38305C14.2238 3.43982 13.651 4.00233 13.0317 4.62677L11.9015 5.74148L11.6745 5.68987C11.3558 5.59179 11.0127 5.60947 10.7058 5.73978C10.399 5.87009 10.148 6.10465 9.99724 6.40204C9.85658 6.74023 9.82765 7.11452 9.91467 7.4703C9.95596 7.64577 9.91467 7.67673 9.46054 8.15667C9.25763 8.34701 9.08375 8.56609 8.94447 8.80692C8.93236 8.8826 8.93939 8.96011 8.96491 9.03238C8.99043 9.10465 9.03364 9.16939 9.09058 9.22069C9.14752 9.27199 9.2164 9.30823 9.29093 9.32609C9.36547 9.34396 9.44329 9.34289 9.5173 9.32298C9.74355 9.16046 9.95276 8.97545 10.1417 8.77079C10.601 8.30633 10.6578 8.25473 10.7868 8.33214C10.9554 8.37459 11.1291 8.39369 11.3029 8.3889C11.4804 8.38959 11.6563 8.35505 11.8204 8.28728C11.9844 8.21951 12.1334 8.11986 12.2587 7.9941C12.384 7.86834 12.483 7.71897 12.5502 7.55465C12.6173 7.39033 12.6512 7.21431 12.6498 7.03681C12.6524 6.87501 12.6333 6.71359 12.5931 6.55687C12.5363 6.42269 12.5931 6.33496 13.7697 5.16864C14.9463 4.00233 15.0083 3.90428 15.0083 3.73914C15.0097 3.67535 14.9959 3.61213 14.9681 3.5547C14.9403 3.49728 14.8992 3.44729 14.8483 3.40886C14.8195 3.36257 14.7803 3.32374 14.7336 3.29552C14.687 3.2673 14.6344 3.25049 14.5801 3.24647C14.5258 3.24245 14.4712 3.25132 14.421 3.27236C14.3707 3.29341 14.3262 3.32603 14.2909 3.36757L14.3012 3.38305ZM19.4619 5.7518C19.4075 5.78903 19.3643 5.84046 19.337 5.9005C19.3097 5.96054 19.2993 6.02691 19.3071 6.0924C19.3071 6.50526 19.3071 6.51042 21.0875 6.51042C21.6043 6.46682 22.1246 6.48936 22.6357 6.57751C22.6357 6.61363 21.9597 9.15784 21.1288 12.2542L19.6167 17.8845H12.9646L12.9285 17.5749C12.8914 17.2762 12.7811 16.9913 12.6073 16.7455C12.4335 16.4997 12.2017 16.3006 11.9325 16.166C11.6525 16.0352 11.3405 15.9886 11.0345 16.0319C10.6355 15.9794 10.2306 16.0669 9.88887 16.2796C9.3114 16.5668 8.8293 17.0148 8.50065 17.5697L8.34067 17.8794H7.38079C6.49831 17.8794 6.42606 17.8794 6.45703 17.7813C6.58088 17.3633 7.3137 14.5817 7.3137 14.5146C7.28935 14.4155 7.23615 14.3258 7.16082 14.2569C7.0855 14.188 6.99143 14.143 6.89052 14.1276C6.48799 14.1276 6.51895 14.0553 5.90483 16.3673C5.53327 17.7658 5.49198 17.9619 5.54875 18.1632C5.5857 18.285 5.65213 18.3959 5.74215 18.4859C5.83216 18.5759 5.94299 18.6423 6.06482 18.6793C6.439 18.733 6.81719 18.7538 7.195 18.7412C8.27358 18.7412 8.15489 18.6896 8.22714 19.2057C8.30331 19.5596 8.48294 19.8829 8.7432 20.1346C9.77534 21.079 11.659 20.5732 12.5724 19.1025L12.7943 18.7464H22.7338L22.7647 19.0354C22.8025 19.298 22.8954 19.5496 23.0373 19.7737C23.1793 19.9979 23.3672 20.1893 23.5885 20.3356C23.8099 20.4819 24.0597 20.5796 24.3216 20.6223C24.5834 20.6651 24.8513 20.6519 25.1077 20.5836C25.5353 20.482 25.9382 20.296 26.2927 20.0363C26.6472 19.7766 26.9462 19.4485 27.172 19.0715C27.3113 18.8238 27.3732 18.7618 27.4971 18.7618C27.8001 18.7297 28.0912 18.6265 28.3468 18.4606C28.6024 18.2947 28.8152 18.0708 28.9679 17.8071C29.3831 16.5108 29.7277 15.1929 30 13.8592C30 13.3896 29.8142 13.1574 28.9317 12.5226L28.1473 11.9343V9.69455C28.1473 7.18647 28.1473 7.11422 27.7293 6.82006C27.3113 6.5259 27.172 6.54654 25.3141 6.54138H23.5698V6.36076C23.5616 6.2203 23.5142 6.08495 23.433 5.97002C23.3519 5.8551 23.2401 5.7652 23.1105 5.71051C22.9144 5.62794 22.5944 5.61246 21.2372 5.61246C19.6632 5.61246 19.5858 5.61762 19.4413 5.74148L19.4619 5.7518ZM6.34349 6.62395C5.74485 6.96972 6.23512 7.60964 6.98857 7.46514C7.10767 7.45979 7.22002 7.40835 7.30188 7.32167C7.38374 7.235 7.42869 7.11989 7.42723 7.00068C7.42723 6.70136 7.21564 6.55171 6.79247 6.55687C6.63995 6.55126 6.48771 6.574 6.34349 6.62395ZM10.89 6.6704C10.803 6.76553 10.7547 6.8898 10.7547 7.01874C10.7547 7.14768 10.803 7.27196 10.89 7.36709C10.9599 7.42841 11.0459 7.46836 11.1379 7.48219C11.2298 7.49601 11.3238 7.48313 11.4086 7.44507C11.4934 7.40701 11.5655 7.34537 11.6163 7.2675C11.6671 7.18963 11.6945 7.09881 11.6951 7.00584C11.6804 6.92005 11.6443 6.83937 11.5901 6.7713C11.5358 6.70323 11.4653 6.64997 11.3849 6.6165C11.3046 6.58302 11.2171 6.57041 11.1305 6.57984C11.044 6.58926 10.9613 6.62041 10.89 6.6704ZM15.1992 6.6704C15.1519 6.70883 15.1133 6.75681 15.0858 6.81119C15.0583 6.86558 15.0425 6.92515 15.0396 6.98602C15.0367 7.0469 15.0466 7.1077 15.0688 7.16447C15.091 7.22124 15.1248 7.27269 15.1682 7.31548C15.2766 7.42386 15.3643 7.4445 15.6843 7.4445C16.1333 7.4445 16.2881 7.35161 16.3603 7.04713C16.3913 6.91811 16.3604 6.85618 16.221 6.71169C16.0817 6.56719 16.0094 6.53106 15.7049 6.53106C15.4005 6.53106 15.3282 6.57751 15.1992 6.69104V6.6704ZM23.3066 7.54771C23.3066 7.63028 21.6604 13.7096 21.5984 13.9418L21.5623 14.1069H24.1994C26.7797 14.1069 26.8417 14.1069 26.9449 14.2205C26.9839 14.2647 27.0135 14.3164 27.0321 14.3723C27.0506 14.4283 27.0577 14.4875 27.0529 14.5462C27.0481 14.605 27.0315 14.6622 27.004 14.7144C26.9766 14.7666 26.9389 14.8127 26.8933 14.8501L26.723 15.0307H21.3094L20.943 16.4241C20.7366 17.193 20.5715 17.8381 20.5766 17.8639C20.9636 17.9101 21.3535 17.9257 21.7429 17.9103H22.9144L23.1002 17.5801C23.3563 17.1011 23.7404 16.7027 24.2097 16.4294C24.679 16.156 25.215 16.0184 25.7579 16.0319C25.9896 16.0273 26.2198 16.0708 26.4339 16.1596C26.6479 16.2484 26.8412 16.3806 27.0017 16.5479C27.2685 16.8091 27.4487 17.146 27.5177 17.513C27.5177 17.8742 27.6467 17.9413 27.9357 17.7297C28.2247 17.5181 28.235 17.4252 28.5395 16.2692C28.6892 15.7067 28.8285 15.1958 28.844 15.1391C28.8595 15.0823 28.844 15.0358 28.6427 15.0358C28.1834 15.0358 27.9151 14.5817 28.1938 14.2721C28.2815 14.1792 28.3744 14.1585 28.7098 14.1585C29.0453 14.1585 29.1124 14.1585 29.1485 14.014C29.1702 13.9469 29.1702 13.8747 29.1485 13.8076C28.9079 13.6031 28.6564 13.4119 28.395 13.2348L27.6829 12.7187L25.8921 12.6877C23.9414 12.6568 23.9259 12.6568 23.5904 12.2955C23.255 11.9343 23.224 11.5576 23.5388 10.417C23.7917 9.48813 23.9569 9.14752 24.2975 8.86885C24.7413 8.51792 24.8755 8.48695 26.1398 8.46631L27.301 8.44051V8.0483C27.3145 7.88993 27.2897 7.73062 27.2287 7.58384C25.924 7.47113 24.6122 7.46596 23.3066 7.56836V7.54771ZM24.8548 9.50361C24.7641 9.57818 24.6842 9.66502 24.6174 9.76164C24.4075 10.345 24.2588 10.9486 24.1736 11.5627L24.2097 11.6969H27.2597V9.35395H25.0458L24.8548 9.50361ZM11.0913 10.8402C10.8746 10.9228 10.7765 11.1292 10.7765 11.5008C10.7765 11.8724 10.7765 11.8672 10.952 12.0169C11.1274 12.1665 11.1584 12.1872 11.2874 12.1562C11.5971 12.0839 11.6848 11.9291 11.6848 11.4801C11.6848 11.1499 11.6848 11.0518 11.5661 10.9641C11.5092 10.8973 11.4331 10.8496 11.3482 10.8274C11.2633 10.8053 11.1736 10.8097 11.0913 10.8402ZM0.2539 12.7445C0.202828 12.7658 0.156561 12.7972 0.117847 12.8367C0.079134 12.8763 0.0487646 12.9232 0.028545 12.9747C0.00832548 13.0262 -0.00133117 13.0812 0.000147419 13.1366C0.00162601 13.1919 0.0142105 13.2463 0.0371529 13.2967C0.140366 13.5909 0.202294 13.596 2.78779 13.596C5.37329 13.596 5.43521 13.596 5.53843 13.2967C5.56266 13.2459 5.57598 13.1906 5.57754 13.1344C5.57909 13.0782 5.56884 13.0222 5.54744 12.9702C5.52605 12.9182 5.49398 12.8712 5.45332 12.8323C5.41266 12.7935 5.36429 12.7635 5.31136 12.7445C3.61925 12.6194 1.92021 12.6194 0.228097 12.7445H0.2539ZM1.52859 14.721C1.45676 14.8022 1.4171 14.9068 1.4171 15.0152C1.4171 15.1236 1.45676 15.2282 1.52859 15.3094L1.63696 15.4487H3.22645H4.82109L4.96559 15.3042C5.0509 15.2246 5.10184 15.1148 5.10762 14.9983C5.1134 14.8817 5.07357 14.7675 4.99656 14.6798C4.88302 14.5714 4.80045 14.5662 3.26773 14.5662C1.73501 14.5662 1.62148 14.5972 1.50278 14.721H1.52859ZM2.94777 16.6098C2.90649 16.648 2.87356 16.6943 2.85104 16.7458C2.82851 16.7973 2.81688 16.8529 2.81688 16.9092C2.81688 16.9654 2.82851 17.021 2.85104 17.0725C2.87356 17.124 2.90649 17.1703 2.94777 17.2085C3.08195 17.3427 3.12839 17.353 3.71155 17.353C4.2947 17.353 4.34115 17.353 4.48049 17.2085C4.56473 17.129 4.61458 17.0198 4.6194 16.9041C4.62422 16.7884 4.58363 16.6754 4.50629 16.5892C4.40308 16.486 4.31019 16.4757 3.72187 16.4757C3.13355 16.4757 3.04066 16.4808 2.92197 16.6098H2.94777ZM10.4307 17.0227C9.01672 17.6213 8.59354 19.3811 9.79598 19.7011C10.4875 19.8869 11.4319 19.3708 11.8602 18.5761C11.9997 18.3577 12.0698 18.1022 12.0615 17.8433C12.0787 17.6852 12.0504 17.5254 11.9801 17.3829C11.9097 17.2403 11.8001 17.1207 11.6641 17.0382C11.4694 16.9396 11.2546 16.887 11.0363 16.8843C10.8181 16.8816 10.6021 16.929 10.4049 17.0227H10.4307ZM25.1386 16.9711C24.767 17.0882 24.4372 17.3105 24.1891 17.611C23.9573 17.8072 23.7915 18.0698 23.7139 18.3633C23.6364 18.6568 23.6509 18.9671 23.7556 19.2521C23.8314 19.4232 23.9599 19.5656 24.1224 19.6584C24.2849 19.7513 24.4728 19.7897 24.6587 19.7682C25.1654 19.7423 25.6433 19.5246 25.9953 19.1592C26.178 19.0078 26.3269 18.8198 26.4327 18.6074C26.5384 18.395 26.5986 18.1628 26.6094 17.9258C26.6094 17.5955 26.6094 17.513 26.4959 17.3427C26.3395 17.1358 26.1186 16.9869 25.8681 16.9196C25.6176 16.8523 25.3519 16.8704 25.1128 16.9711H25.1386ZM10.2708 18.0032C10.2287 18.0457 10.1956 18.0962 10.1735 18.1517C10.1514 18.2073 10.1407 18.2667 10.1422 18.3265C10.1436 18.3863 10.1571 18.4451 10.1819 18.4995C10.2067 18.5539 10.2421 18.6028 10.2862 18.6432C10.3234 18.6825 10.3682 18.7139 10.4179 18.7353C10.4676 18.7567 10.5211 18.7678 10.5752 18.7678C10.6294 18.7678 10.6829 18.7567 10.7326 18.7353C10.7823 18.7139 10.8271 18.6825 10.8642 18.6432C10.9037 18.6056 10.9352 18.5603 10.9567 18.5102C10.9782 18.4601 10.9893 18.4061 10.9893 18.3516C10.9893 18.297 10.9782 18.2431 10.9567 18.193C10.9352 18.1428 10.9037 18.0976 10.8642 18.06C10.789 17.9717 10.6825 17.9159 10.5671 17.9043C10.4516 17.8928 10.3362 17.9264 10.245 17.9981L10.2708 18.0032ZM24.8342 18.0394C24.794 18.0766 24.7619 18.1217 24.74 18.1718C24.7181 18.222 24.7068 18.2762 24.7068 18.3309C24.7068 18.3857 24.7181 18.4399 24.74 18.49C24.7619 18.5402 24.794 18.5853 24.8342 18.6225C24.87 18.6637 24.9138 18.6972 24.963 18.721C25.0122 18.7447 25.0657 18.7582 25.1202 18.7606C25.1748 18.763 25.2292 18.7543 25.2803 18.735C25.3314 18.7157 25.378 18.6862 25.4173 18.6483C25.463 18.6089 25.5002 18.5608 25.5269 18.5067C25.5535 18.4526 25.569 18.3936 25.5723 18.3334C25.5757 18.2732 25.5669 18.213 25.5465 18.1562C25.5261 18.0995 25.4944 18.0475 25.4535 18.0032C25.4099 17.9613 25.3582 17.9286 25.3016 17.9074C25.245 17.8861 25.1846 17.8766 25.1242 17.8795C25.0638 17.8824 25.0046 17.8976 24.9503 17.9242C24.896 17.9508 24.8477 17.9883 24.8084 18.0342L24.8342 18.0394Z" fill="#E51A83"/>
</svg>
