<svg width="30" height="21" viewBox="0 0 30 21" fill="none" xmlns="http://www.w3.org/2000/svg">
<path d="M2.55565 0.446533H27.5038C27.3513 2.07528 28.3856 3.09028 29.9988 2.93903V17.8922C29.8325 17.8922 29.6663 17.8922 29.4988 17.8922C28.4825 17.9084 27.6644 18.6153 27.5238 19.6178C27.49 19.859 27.5188 20.109 27.5188 20.3678H2.5494C2.60627 19.6484 2.4869 18.9928 1.96252 18.4653C1.43815 17.9378 0.767524 17.8584 0.0875244 17.884V2.94653C1.9419 2.85716 2.55565 2.22841 2.55565 0.446533ZM28.9888 16.9234V3.90528C27.6663 3.58903 26.8496 2.7732 26.5388 1.45778H3.52315C3.2069 2.78278 2.39107 3.59924 1.07565 3.90716V16.9272C2.41127 17.2428 3.21628 18.0703 3.52565 19.3678H26.5381C26.8581 18.0422 27.6707 17.2359 28.9888 16.9234Z" fill="#E51A83"/>
<path d="M2.55562 0.446533C2.55562 2.22841 1.94188 2.85716 0.0862503 2.94966V17.8872C0.7675 17.8615 1.43688 17.9422 1.96125 18.4684C2.48563 18.9947 2.605 19.6515 2.54812 20.3709H27.52C27.52 20.1122 27.4912 19.8622 27.525 19.6209C27.6656 18.6209 28.4837 17.9115 29.5 17.8953C29.6663 17.8953 29.8325 17.8953 30 17.8953V20.4497H0V0.449657L2.55562 0.446533Z" fill="white"/>
<path d="M29.9988 2.93842C28.3856 3.08967 27.3513 2.07467 27.5038 0.445923H29.9988V2.93842Z" fill="white"/>
<path d="M15.0406 16.3822H4.06123V11.424H3.07373V7.42404H5.39623C5.01498 7.01967 4.75623 6.61779 4.66685 6.12592C4.55985 5.57226 4.66404 4.99861 4.95891 4.51794C5.25378 4.03728 5.71795 3.68446 6.25999 3.52897C6.80203 3.37349 7.38265 3.42661 7.88747 3.67788C8.3923 3.92915 8.78473 4.36035 8.98748 4.88654C9.17498 5.36342 9.33748 5.84904 9.54185 6.41467C9.74685 5.84717 9.91311 5.36154 10.0975 4.88279C10.2663 4.43974 10.5708 4.06135 10.9674 3.80161C11.3641 3.54188 11.8326 3.41409 12.3062 3.43647C12.7798 3.45885 13.2343 3.63027 13.6046 3.92626C13.975 4.22225 14.2424 4.62767 14.3687 5.08467C14.5781 5.83842 14.4187 6.52217 13.9387 7.13279C13.8706 7.21967 13.7937 7.29967 13.6819 7.42717H16.0087V11.4072H15.0406V16.3822ZM8.03061 11.4347H5.07748V15.3834H8.03248L8.03061 11.4347ZM11.0519 15.3759H14.0069V11.429H11.0519V15.3759ZM4.07748 8.43342V10.3997H8.02623V8.43342H4.07748ZM15.0237 8.43967H11.0594V10.3915H15.0231L15.0237 8.43967ZM9.06435 8.43842V15.3759H10.0237V8.43842H9.06435ZM10.28 7.31342C11.1006 7.17029 11.8475 7.06717 12.5806 6.90217C13.1169 6.78217 13.475 6.23842 13.4656 5.68717C13.4593 5.41596 13.3663 5.15389 13.2003 4.93931C13.0343 4.72474 12.804 4.56892 12.5431 4.49467C12.0012 4.34092 11.3794 4.53029 11.1487 5.03342C10.82 5.74654 10.5812 6.50467 10.28 7.30967V7.31342ZM8.79311 7.29967C8.51811 6.53904 8.28998 5.83029 8.00498 5.14467C7.78248 4.60842 7.15373 4.33217 6.60873 4.46529C6.32894 4.53097 6.07932 4.68872 5.89991 4.91324C5.7205 5.13776 5.62169 5.41603 5.61935 5.70342C5.6161 5.99158 5.71383 6.27179 5.89557 6.49544C6.07732 6.71908 6.33162 6.87204 6.61436 6.92779C7.31373 7.05904 8.01873 7.16529 8.79311 7.29592V7.29967Z" fill="#E51A83"/>
<path d="M26.5069 6.28784L27.1113 6.88972L18.4876 15.501L17.8826 14.901L26.5069 6.28784Z" fill="#E51A83"/>
<path d="M18.5238 8.17281C18.5233 7.82745 18.6253 7.48971 18.8168 7.20231C19.0083 6.91492 19.2807 6.69079 19.5997 6.55828C19.9186 6.42577 20.2697 6.39085 20.6084 6.45792C20.9472 6.52499 21.2585 6.69105 21.5029 6.93508C21.7473 7.17911 21.9138 7.49015 21.9813 7.82883C22.0489 8.16752 22.0145 8.51864 21.8824 8.83775C21.7504 9.15687 21.5266 9.42964 21.2395 9.62157C20.9524 9.81349 20.6148 9.91593 20.2694 9.91593C19.8072 9.91478 19.3643 9.73084 19.0372 9.40426C18.7102 9.07768 18.5256 8.63499 18.5238 8.17281ZM21.0151 8.16906C21.0143 8.02179 20.97 7.87803 20.8877 7.75588C20.8054 7.63374 20.6889 7.53867 20.5527 7.48266C20.4164 7.42664 20.2667 7.41218 20.1223 7.44109C19.9779 7.47 19.8453 7.541 19.7411 7.64514C19.637 7.74928 19.566 7.8819 19.5371 8.02631C19.5082 8.17072 19.5226 8.32045 19.5787 8.45666C19.6347 8.59286 19.7297 8.70945 19.8519 8.79173C19.974 8.87401 20.1178 8.91832 20.2651 8.91906C20.464 8.91906 20.6547 8.84004 20.7954 8.69939C20.936 8.55874 21.0151 8.36797 21.0151 8.16906V8.16906Z" fill="#E51A83"/>
<path d="M23.015 13.6585C23.014 13.3132 23.1155 12.9754 23.3065 12.6877C23.4975 12.4001 23.7695 12.1756 24.0881 12.0426C24.4068 11.9096 24.7577 11.874 25.0965 11.9405C25.4353 12.0069 25.7469 12.1723 25.9917 12.4158C26.2365 12.6593 26.4036 12.9699 26.4718 13.3084C26.5401 13.6469 26.5064 13.998 26.3751 14.3173C26.2438 14.6366 26.0208 14.9099 25.7342 15.1024C25.4476 15.295 25.1103 15.3982 24.765 15.3991C24.3025 15.3991 23.8588 15.216 23.5309 14.8898C23.203 14.5637 23.0175 14.121 23.015 13.6585V13.6585ZM24.7494 12.9085C24.6023 12.9107 24.4591 12.9564 24.3379 13.0398C24.2167 13.1232 24.1229 13.2406 24.0683 13.3772C24.0137 13.5138 24.0007 13.6635 24.031 13.8075C24.0613 13.9514 24.1335 14.0832 24.2385 14.1863C24.3435 14.2893 24.4767 14.3589 24.6212 14.3865C24.7657 14.414 24.9152 14.3981 25.0507 14.3409C25.1862 14.2837 25.3018 14.1876 25.3829 14.0649C25.4639 13.9421 25.5069 13.7981 25.5063 13.651C25.504 13.4523 25.4229 13.2626 25.2809 13.1236C25.1388 12.9846 24.9475 12.9077 24.7488 12.9097L24.7494 12.9085Z" fill="#E51A83"/>
<path d="M9.06445 8.43848H10.0238V15.376H9.06445V8.43848Z" fill="#FCF065"/>
<path d="M10.28 7.30972C10.5813 6.50472 10.82 5.74722 11.1488 5.02972C11.3794 4.52972 12.0013 4.33722 12.5432 4.49097C12.8041 4.56522 13.0344 4.72103 13.2004 4.93561C13.3664 5.15019 13.4593 5.41226 13.4657 5.68347C13.475 6.23472 13.1169 6.77847 12.5807 6.89847C11.8475 7.06347 11.1007 7.16659 10.28 7.30972Z" fill="#FCF065"/>
<path d="M8.79322 7.29589C8.01884 7.16527 7.31384 7.05902 6.61447 6.92089C6.33173 6.86514 6.07743 6.71218 5.89568 6.48853C5.71394 6.26489 5.61621 5.98468 5.61946 5.69652C5.6218 5.40913 5.7206 5.13086 5.90002 4.90634C6.07943 4.68182 6.32905 4.52407 6.60884 4.45839C7.15384 4.32714 7.78259 4.60152 8.00509 5.13777C8.29009 5.82652 8.51822 6.53527 8.79322 7.29589Z" fill="#FCF065"/>
<path d="M21.0149 8.16903C21.0158 8.31635 20.973 8.46063 20.892 8.58368C20.811 8.70673 20.6954 8.80305 20.5597 8.8605C20.4241 8.91795 20.2744 8.93396 20.1297 8.90651C19.9849 8.87907 19.8516 8.80939 19.7463 8.70626C19.6411 8.60314 19.5688 8.47118 19.5385 8.32701C19.5081 8.18284 19.5211 8.03292 19.5759 7.89614C19.6306 7.75935 19.7246 7.64183 19.846 7.55837C19.9674 7.47491 20.1108 7.42926 20.2581 7.42716C20.4568 7.42532 20.6481 7.50242 20.79 7.64151C20.9319 7.78061 21.0128 7.97033 21.0149 8.16903V8.16903Z" fill="#FCF065"/>
<path d="M24.7488 12.9096C24.8959 12.9073 25.0405 12.9486 25.1642 13.0284C25.288 13.1081 25.3854 13.2226 25.4441 13.3576C25.5028 13.4926 25.5203 13.6419 25.4943 13.7868C25.4684 13.9316 25.4001 14.0656 25.2981 14.1717C25.1961 14.2779 25.065 14.3515 24.9213 14.3832C24.7776 14.415 24.6277 14.4035 24.4905 14.3502C24.3533 14.2969 24.2349 14.2042 24.1503 14.0838C24.0657 13.9633 24.0186 13.8205 24.015 13.6734C24.0113 13.4749 24.0865 13.283 24.224 13.1399C24.3616 12.9967 24.5503 12.9139 24.7488 12.9096V12.9096Z" fill="#FCF065"/>
</svg>
